# xmcd CD database file
#
# Track frame offsets:
#	150
#	11055
#	28979
#	47982
#	67276
#	85016
#	99080
#	115556
#	131403
#	149644
#	163616
#	179640
#
# Disc length: 2685 seconds
#
# Revision: 0
# Processed by: cddbd v1.5.1PL0 Copyright (c) Steve Scherf et al.
# Submitted via: CDex 1.60beta1
#
DISCID=a80a7b0c
DTITLE=雅 -miyavi- - 雅 -miyavizm- 主義
DYEAR=2005
DGENRE=Rock
TTITLE0=好っきやねんMYV 〜MYVマン公式応援歌〜 （前編）
TTITLE1=恋はプッシュホン♪
TTITLE2=ビバ★ビバ★ビバップ 〜人生、泣き笑い〜
TTITLE3=ポップンロール甲子園 （ベースボール）
TTITLE4=阿呆祭 -アホまつり-
TTITLE5=さいさいさいなら Byebyebye /featuring - PSY
TTITLE6=雨に唄えば 〜ピチピチチャプチャプランランブルース〜
TTITLE7=ROCK'N'ROLL IS "NOT"DEAD [邦題 - ロックンロールは眠らない]
TTITLE8=♂パパママ♀〜望まれヌBaby〜
TTITLE9=好っきやねんMYV 〜MYVマン公式応援歌〜 （後編）
TTITLE10=ロックの逆襲 -スーパースターの条件-
TTITLE11=Freedom Fighters -アイスクリーム持った裸足の女神と、機関銃持った裸の王様-
EXTD=YEAR: 2005
EXTT0=
EXTT1=
EXTT2=
EXTT3=
EXTT4=
EXTT5=
EXTT6=
EXTT7=
EXTT8=
EXTT9=
EXTT10=
EXTT11=
PLAYORDER=
